<?xml version="1.0" standalone="no"?>
<!DOCTYPE svg PUBLIC "-//W3C//DTD SVG 20010904//EN" "http://www.w3.org/TR/2001/REC-SVG-20010904/DTD/svg10.dtd">
<svg xmlns="http://www.w3.org/2000/svg" version="1.0" width="1024.000000pt" height="1024.000000pt" viewBox="0 0 1024.000000 1024.000000" preserveAspectRatio="xMidYMid meet">
<metadata>
Created by potrace 1.16, written by Peter Selinger 2001-2019
<meta name="Producer" content="Online-Convert"/></metadata>
<g transform="translate(0.000000,1024.000000) scale(0.100000,-0.100000)" fill="#000000" stroke="none">
<path d="M0 5120 l0 -5120 5120 0 5120 0 0 5120 0 5120 -5120 0 -5120 0 0 -5120z m3425 900 l0 -235 -267 -3 -268 -2 0 -885 0 -885 -265 0 -265 0 0 885 0 885 -265 0 -264 0 -3 236 c-2 130 -1 238 1 240 3 2 363 3 800 2 l796 -3 0 -235z m1146 175 c10 -33 77 -292 149 -575 72 -283 194 -759 271 -1057 76 -297 139 -544 139 -547 0 -4 -127 -5 -282 -4 l-283 3 -47 220 c-25 121 -47 223 -47 228 -1 4 -135 6 -298 5 l-296 -3 -48 -212 c-25 -117 -49 -219 -52 -228 -6 -13 -42 -15 -275 -15 -148 0 -271 2 -274 5 -5 5 -15 -33 226 900 36 138 126 489 201 780 75 292 138 538 141 548 5 16 30 17 382 15 l376 -3 17 -60z m1857 -177 l2 -238 -260 0 -260 0 0 -885 0 -885 -260 0 -260 0 0 885 0 885 -260 0 -260 0 0 240 0 240 778 -2 777 -3 3 -237z m665 210 c8 -18 83 -212 168 -430 85 -218 157 -393 160 -390 6 6 135 328 309 770 l33 82 283 0 c187 0 284 -4 284 -10 0 -10 -54 -126 -253 -545 -52 -110 -165 -348 -251 -529 l-156 -330 0 -418 0 -418 -260 0 -260 0 0 428 0 429 -325 685 c-179 377 -325 690 -325 697 0 8 81 11 290 11 l290 0 13 -32z"/>
<path d="M4073 5337 c-51 -215 -91 -393 -89 -394 2 -2 88 -2 193 -1 l189 3 -96 387 c-52 213 -98 389 -100 392 -3 2 -46 -172 -97 -387z"/>
</g>
</svg>
